<svg version="1.1" viewBox="0.0 0.0 576.9606299212599 241.95275590551182" fill="none" stroke="none" stroke-linecap="square" stroke-miterlimit="10" xmlns:xlink="http://www.w3.org/1999/xlink" xmlns="http://www.w3.org/2000/svg"><clipPath id="p.0"><path d="m0 0l576.96063 0l0 241.95276l-576.96063 0l0 -241.95276z" clip-rule="nonzero"/></clipPath><g clip-path="url(#p.0)"><path fill="#000000" fill-opacity="0.0" d="m0 0l576.96063 0l0 241.95276l-576.96063 0z" fill-rule="evenodd"/><path fill="#2a9d8f" d="m20.149448 6.779895l45.54334 213.7628l444.75586 15.592514l60.409454 -210.04823z" fill-rule="evenodd"/><path stroke="#000000" stroke-width="1.0" stroke-linejoin="round" stroke-linecap="butt" d="m20.149448 6.779895l45.54334 213.7628l444.75586 15.592514l60.409454 -210.04823z" fill-rule="evenodd"/><path fill="#b20600" d="m6.6076117 16.395014l53.007874 212.0315l445.03937 0l53.007874 -212.0315z" fill-rule="evenodd"/><path stroke="#000000" stroke-width="1.0" stroke-linejoin="round" stroke-linecap="butt" d="m6.6076117 16.395014l53.007874 212.0315l445.03937 0l53.007874 -212.0315z" fill-rule="evenodd"/><path fill="#000000" fill-opacity="0.0" d="m38.355644 37.757217l309.6063 0l0 116.34645l-309.6063 0z" fill-rule="evenodd"/><path fill="#eeeeee" d="m102.93453 124.19784q-10.640625 0 -16.1875 -4.03125q-5.53125 -4.046875 -3.765625 -12.375q0.9375 -4.390625 2.953125 -6.703125q2.015625 -2.328125 4.96875 -2.328125q2.15625 0 3.28125 1.125q1.125 1.109375 0.75 2.875q-0.34375 1.59375 -0.828125 2.796875q-0.0625 0.3125 -0.359375 1.125q-0.28125 0.796875 -0.46875 1.671875q-0.765625 3.609375 2.5 5.375q3.265625 1.75 9.8125 1.75q6.8125 0 11.15625 -2.4375q4.359375 -2.4375 5.296875 -6.84375q0.578125 -2.71875 -0.765625 -4.671875q-1.34375 -1.96875 -3.703125 -3.28125q-2.359375 -1.328125 -6.734375 -3.25q-5.65625 -2.390625 -9.078125 -4.546875q-3.421875 -2.171875 -5.390625 -5.890625q-1.96875 -3.71875 -0.796875 -9.234375q1.234375 -5.765625 5.25 -10.234375q4.03125 -4.484375 10.359375 -6.96875q6.328125 -2.484375 14.171875 -2.484375q5.8437424 0 10.343742 1.71875q4.515625 1.71875 6.6875 5.25q2.171875 3.515625 1.09375 8.640625q-1.078125 5.03125 -3.140625 7.59375q-2.0625 2.5625 -5.03125 2.5625q-2.078125 0 -3.203125 -1.28125q-1.125 -1.28125 -0.75 -3.046875q0.328125 -1.515625 0.828125 -2.796875q0.765625 -2.40625 0.90625 -3.03125q0.71875 -3.375 -2.203125 -5.125q-2.9062424 -1.765625 -7.7968674 -1.765625q-6.875 0 -11.046875 2.53125q-4.171875 2.515625 -5.140625 7.078125q-0.65625 3.03125 0.765625 5.203125q1.4375 2.15625 3.921875 3.59375q2.484375 1.4375 7.109375 3.4375q5.546875 2.484375 8.796875 4.484375q3.2656174 2.0 5.1249924 5.4375q1.875 3.4375 0.8125 8.484375q-2.015625 9.4375 -10.265617 14.515625q-8.234375 5.078125 -20.234375 5.078125zm71.936806 -18.484375q1.046875 0 1.4375 0.96875q0.40625 0.953125 0.046875 2.640625q-0.6875 3.1875 -2.59375 4.953125q-4.328125 4.234375 -9.0 6.96875q-4.65625 2.71875 -9.9375 2.71875q-16.3125 0 -11.421875 -22.96875q0.75 -3.515625 1.75 -7.125l-3.125 0q-2.390625 0 -3.046875 -0.875q-0.65625 -0.875 -0.25 -2.796875q0.953125 -4.484375 4.5625 -4.484375l4.546875 0q3.21875 -8.796875 7.578125 -16.078125q4.359375 -7.28125 9.234375 -11.59375q4.875 -4.328125 9.4375 -4.328125q3.359375 0 4.640625 2.96875q1.296875 2.953125 0.34375 7.4375q-2.640625 12.390625 -14.984375 21.59375l8.953125 0q1.28125 0 1.71875 0.5625q0.453125 0.5625 0.125 2.078125q-1.171875 5.515625 -10.21875 5.515625l-9.75 0q-1.03125 4.0 -1.5 6.25q-1.765625 8.3125 -0.53125 11.671875q1.25 3.359375 5.5 3.359375q3.4375 0 6.515625 -2.078125q3.09375 -2.078125 7.5625 -6.234375q1.203125 -1.125 2.40625 -1.125zm-4.578125 -44.3125q-1.203125 0 -3.328125 3.0q-2.109375 3.0 -4.5625 8.328125q-2.453125 5.3125 -4.703125 11.78125q5.59375 -4.078125 9.03125 -9.15625q3.4375 -5.078125 4.3125 -9.234375q1.015625 -4.71875 -0.75 -4.71875zm6.299347 62.5625q-4.96875 0 -7.171875 -3.59375q-2.1875 -3.609375 -0.9375 -9.453125q1.359375 -6.40625 5.53125 -12.125q4.1875 -5.71875 9.84375 -9.1875q5.65625 -3.484375 11.171875 -3.484375q1.765625 0 2.21875 0.6875q0.46875 0.671875 0.484375 2.4375q1.75 -0.328125 3.578125 -0.328125q3.921875 0 3.328125 2.796875q-0.359375 1.6875 -2.890625 8.0q-3.796875 9.203125 -4.5625 12.796875q-0.25 1.203125 0.1875 1.921875q0.453125 0.71875 1.40625 0.71875q1.515625 0 4.09375 -1.953125q2.578125 -1.953125 7.1875 -6.359375q1.21875 -1.125 2.421875 -1.125q1.03125 0 1.421875 0.96875q0.40625 0.953125 0.046875 2.640625q-0.6875 3.1875 -2.578125 4.953125q-4.140625 4.078125 -8.421875 6.890625q-4.28125 2.796875 -7.734375 2.796875q-2.625 0 -4.4375 -1.796875q-1.8125 -1.8125 -2.28125 -4.921875q-5.59375 6.71875 -11.90625 6.71875zm4.609375 -8.09375q1.75 0 3.78125 -2.078125q2.046875 -2.078125 3.5 -5.515625l6.09375 -14.71875q-3.375 0.078125 -6.734375 2.515625q-3.359375 2.4375 -5.890625 6.4375q-2.53125 4.0 -3.484375 8.484375q-0.53125 2.484375 0.21875 3.6875q0.75 1.1875 2.515625 1.1875zm67.959335 -10.0q1.046875 0 1.421875 1.0q0.390625 1.0 0.078125 2.53125q-0.40625 1.84375 -1.1875 2.890625q-0.78125 1.03125 -2.15625 1.828125q-7.859375 4.640625 -11.53125 6.875l-5.859375 3.4375q-6.546875 16.562508 -13.484375 26.046883q-6.9375 9.484375 -14.53125 9.484375q-4.09375 0 -6.109375 -2.53125q-2.03125 -2.515625 -1.15625 -6.59375q1.203125 -5.6875 7.0625 -12.203125q5.875 -6.515625 20.21875 -16.031258l1.125 -3.125q-1.8125 2.15625 -4.265625 3.328125q-2.4375 1.15625 -4.59375 1.15625q-4.96875 0 -7.171875 -3.59375q-2.1875 -3.609375 -0.9375 -9.453125q1.359375 -6.40625 5.53125 -12.125q4.1875 -5.71875 9.84375 -9.1875q5.65625 -3.484375 11.171875 -3.484375q1.765625 0 2.21875 0.6875q0.46875 0.671875 0.484375 2.4375q1.578125 -0.328125 3.578125 -0.328125q2.0 0 2.71875 0.609375q0.71875 0.59375 0.34375 2.34375q-0.203125 0.96875 -0.40625 1.53125q-0.84375 2.46875 -4.671875 12.5625q-0.734375 1.90625 -1.578125 4.1875q-0.84375 2.28125 -1.78125 4.84375q7.1875 -4.796875 13.640625 -8.484375q1.1875 -0.640625 1.984375 -0.640625zm-30.359375 10.0q1.84375 0 3.984375 -2.234375q2.15625 -2.234375 3.765625 -6.390625l5.46875 -13.6875q-3.296875 0.078125 -6.625 2.515625q-3.3125 2.4375 -5.84375 6.4375q-2.53125 4.0 -3.484375 8.484375q-0.53125 2.484375 0.21875 3.6875q0.75 1.1875 2.515625 1.1875zm-14.375 36.328133q2.0 0 5.53125 -4.796875q3.546875 -4.796875 8.109375 -15.28125q-7.28125 5.28125 -10.90625 9.515625q-3.625 4.234375 -4.296875 7.4375q-0.296875 1.359375 0.03125 2.234375q0.328125 0.890625 1.53125 0.890625zm77.80434 -46.484383q1.046875 0 1.4375 0.96875q0.40625 0.953125 0.046875 2.640625q-0.6875 3.1875 -2.59375 4.953125q-3.71875 3.59375 -9.765625 6.640625q-6.046875 3.046875 -12.21875 3.046875q-8.390625 0 -12.0625 -4.5625q-3.65625 -4.5625 -1.984375 -12.484375q1.171875 -5.515625 4.5 -10.28125q3.34375 -4.765625 8.046875 -7.5625q4.71875 -2.796875 9.921875 -2.796875q4.640625 0 6.84375 2.765625q2.21875 2.75 1.21875 7.46875q-1.171875 5.53125 -5.96875 9.5q-4.796875 3.953125 -14.75 6.265625q1.21875 3.6875 6.828125 3.6875q3.59375 0 8.734375 -2.515625q5.140625 -2.53125 9.359375 -6.609375q1.203125 -1.125 2.40625 -1.125zm-17.703125 -11.59375q-2.953125 0 -5.734375 3.4375q-2.765625 3.4375 -3.796875 8.3125l-0.046875 0.171875q4.984375 -1.125 8.171875 -3.359375q3.203125 -2.25 3.828125 -5.203125q0.3125 -1.515625 -0.34375 -2.4375q-0.640625 -0.921875 -2.078125 -0.921875zm42.180634 11.59375q-0.515625 6.5625 -0.203125 12.96875q0.109375 1.03125 -0.125 2.15625q-0.765625 3.59375 -5.171875 3.59375q-2.484375 0 -3.515625 -1.359375q-1.03125 -1.359375 -1.34375 -5.109375l0 -0.328125q-3.8594055 3.765625 -6.5781555 5.046875q-2.703125 1.28125 -5.90625 1.28125q-4.875 0 -7.265625 -3.640625q-2.375 -3.640625 -1.140625 -9.484375q1.359375 -6.40625 5.234375 -11.84375q3.875 -5.4375 9.34375 -8.90625q5.4687805 -3.484375 11.4531555 -4.21875q4.734375 -15.109375 11.390625 -26.3125q6.65625 -11.203125 13.78125 -11.203125q3.4375 0 5.046875 3.125q1.625 3.125 0.28125 9.4375q-1.875 8.796875 -8.703125 20.5625q-6.8125 11.765625 -16.578125 24.234375zm17.40625 -49.515625q-2.328125 0 -6.890625 11.84375q-4.546875 11.828125 -8.21875 25.75q12.953125 -19.1875 15.5 -31.1875q0.65625 -3.046875 0.484375 -4.71875q-0.15625 -1.6875 -0.875 -1.6875zm-35.71878 59.671875q1.609375 0 3.328125 -1.1875q1.734375 -1.203125 4.7969055 -4.640625q0.421875 -5.84375 1.75 -12.078125q0.53125 -2.484375 0.890625 -3.84375q-4.65625 1.28125 -8.5156555 5.84375q-3.84375 4.546875 -5.015625 10.078125q-1.234375 5.828125 2.765625 5.828125z" fill-rule="nonzero"/><path fill="#000000" fill-opacity="0.0" d="m88.24278 121.64698l452.34644 0l0 116.34646l-452.34644 0z" fill-rule="evenodd"/><path fill="#eeeeee" d="m190.81055 189.79073l-10.203125 0q-0.1875 2.578125 -0.9375 4.5q-0.734375 1.90625 -1.984375 3.15625q-1.25 1.28125 -3.046875 1.890625q-1.796875 0.609375 -4.109375 0.609375q-1.828125 0 -3.265625 -0.46875q-1.421875 -0.46875 -2.59375 -1.375q-1.046875 -0.859375 -1.859375 -2.109375q-0.796875 -1.25 -1.34375 -2.765625q-0.734375 -2.03125 -1.09375 -4.609375q-0.34375 -2.578125 -0.34375 -5.703125l0 -7.8125q0 -2.421875 0.234375 -4.609375q0.234375 -2.1875 0.78125 -4.03125q0.625 -2.296875 1.71875 -4.078125q1.09375 -1.78125 2.65625 -2.796875q1.015625 -0.734375 2.3125 -1.125q1.3125 -0.390625 2.84375 -0.390625q2.53125 0 4.34375 0.703125q1.828125 0.703125 3.03125 2.0625q1.21875 1.375 1.859375 3.34375q0.640625 1.96875 0.84375 4.515625l10.1875 0q-0.421875 -4.375 -1.90625 -7.890625q-1.484375 -3.515625 -4.03125 -5.9375q-2.53125 -2.46875 -6.125 -3.796875q-3.59375 -1.328125 -8.203125 -1.328125q-3.25 0 -6.03125 0.84375q-2.765625 0.84375 -5.03125 2.40625q-2.53125 1.75 -4.46875 4.25q-1.9375 2.5 -3.140625 5.671875q-1.09375 2.6875 -1.640625 5.796875q-0.546875 3.109375 -0.546875 6.46875l0 7.734375q0 3.546875 0.578125 6.796875q0.59375 3.234375 1.71875 5.96875q1.140625 2.78125 2.828125 5.0625q1.703125 2.28125 3.890625 3.921875q2.34375 1.71875 5.3125 2.671875q2.96875 0.9375 6.484375 0.9375q4.375 0 7.96875 -1.3125q3.59375 -1.3125 6.21875 -3.734375q2.609375 -2.421875 4.171875 -5.8125q1.5625 -3.40625 1.921875 -7.625zm7.7734375 -3.875l0 0.828125q0 4.640625 1.328125 8.578125q1.328125 3.921875 3.90625 6.8125q2.5 2.890625 6.1875 4.515625q3.6875 1.625 8.421875 1.625q4.6875 0 8.359375 -1.625q3.671875 -1.625 6.203125 -4.515625q2.5 -2.890625 3.828125 -6.8125q1.328125 -3.9375 1.328125 -8.578125l0 -0.828125q0 -4.609375 -1.328125 -8.53125q-1.328125 -3.921875 -3.828125 -6.8125q-2.578125 -2.890625 -6.25 -4.53125q-3.671875 -1.640625 -8.390625 -1.640625q-4.6875 0 -8.359375 1.640625q-3.671875 1.640625 -6.171875 4.53125q-2.578125 2.890625 -3.90625 6.8125q-1.328125 3.921875 -1.328125 8.53125zm10.078125 0.828125l0 -0.828125q0 -2.6875 0.5625 -5.09375q0.5625 -2.40625 1.734375 -4.234375q1.171875 -1.875 3.0 -2.921875q1.84375 -1.0625 4.390625 -1.0625q2.578125 0 4.40625 1.0625q1.84375 1.046875 3.015625 2.921875q1.125 1.828125 1.6875 4.234375q0.578125 2.40625 0.578125 5.09375l0 0.828125q0 2.765625 -0.578125 5.1875q-0.5625 2.421875 -1.6875 4.21875q-1.171875 1.875 -3.015625 2.9375q-1.828125 1.046875 -4.328125 1.046875q-2.578125 0 -4.4375 -1.046875q-1.859375 -1.0625 -3.03125 -2.9375q-1.171875 -1.796875 -1.734375 -4.21875q-0.5625 -2.421875 -0.5625 -5.1875zm37.929688 -0.828125l0 0.828125q0 4.640625 1.328125 8.578125q1.328125 3.921875 3.90625 6.8125q2.5 2.890625 6.1875 4.515625q3.6875 1.625 8.421875 1.625q4.6875 0 8.359375 -1.625q3.671875 -1.625 6.203125 -4.515625q2.5 -2.890625 3.828125 -6.8125q1.328125 -3.9375 1.328125 -8.578125l0 -0.828125q0 -4.609375 -1.328125 -8.53125q-1.328125 -3.921875 -3.828125 -6.8125q-2.578125 -2.890625 -6.25 -4.53125q-3.671875 -1.640625 -8.390625 -1.640625q-4.6875 0 -8.359375 1.640625q-3.671875 1.640625 -6.171875 4.53125q-2.578125 2.890625 -3.90625 6.8125q-1.328125 3.921875 -1.328125 8.53125zm10.078125 0.828125l0 -0.828125q0 -2.6875 0.5625 -5.09375q0.5625 -2.40625 1.734375 -4.234375q1.171875 -1.875 3.0 -2.921875q1.84375 -1.0625 4.390625 -1.0625q2.578125 0 4.40625 1.0625q1.84375 1.046875 3.015625 2.921875q1.125 1.828125 1.6875 4.234375q0.578125 2.40625 0.578125 5.09375l0 0.828125q0 2.765625 -0.578125 5.1875q-0.5625 2.421875 -1.6875 4.21875q-1.171875 1.875 -3.015625 2.9375q-1.828125 1.046875 -4.328125 1.046875q-2.578125 0 -4.4375 -1.046875q-1.859375 -1.0625 -3.03125 -2.9375q-1.171875 -1.796875 -1.734375 -4.21875q-0.5625 -2.421875 -0.5625 -5.1875zm54.757812 2.765625l12.703125 17.9375l12.453125 0l-18.46875 -24.65625l16.171875 -17.609375l-12.15625 0l-12.140625 13.046875l-3.59375 4.015625l0 -34.796875l-10.078125 0l0 60.0l10.078125 0l0 -13.25l5.03125 -4.6875zm35.273407 -24.328125l0 8.3125l12.546875 0l0 25.671875l-12.546875 0l0 8.28125l34.6875 0l0 -8.28125l-11.953125 0l0 -33.984375l-22.734375 0zm11.71875 -10.859375q0 1.328125 0.578125 2.421875q0.59375 1.09375 1.6875 1.671875q1.09375 0.625 2.25 0.734375q1.15625 0.09375 2.25 -0.296875q2.296875 -0.203125 3.5625 -1.640625q1.28125 -1.453125 1.15625 -3.5625q-0.109375 -2.140625 -1.625 -3.46875q-1.5 -1.328125 -4.0 -1.328125q-1.328125 0 -2.40625 0.390625q-1.0625 0.390625 -1.8125 1.09375q-0.78125 0.734375 -1.21875 1.75q-0.421875 1.015625 -0.421875 2.234375zm33.789062 53.125l10.125 0l0 -30.078125q0.578125 -0.984375 1.3125 -1.78125q0.75 -0.796875 1.65625 -1.390625q1.09375 -0.734375 2.46875 -1.125q1.390625 -0.390625 3.078125 -0.390625q1.953125 0 3.484375 0.390625q1.546875 0.390625 2.640625 1.40625q1.09375 0.96875 1.671875 2.671875q0.59375 1.703125 0.59375 4.28125l0 26.015625l10.078125 0l0 -26.171875q0 -4.53125 -1.0625 -7.734375q-1.046875 -3.203125 -2.953125 -5.234375q-1.953125 -2.03125 -4.640625 -2.96875q-2.671875 -0.9375 -5.875 -0.9375q-2.5 0 -4.734375 0.703125q-2.21875 0.703125 -4.09375 2.03125q-1.125 0.78125 -2.125 1.78125q-1.0 0.984375 -1.859375 2.203125l-0.625 -5.9375l-9.140625 0l0 42.265625zm46.882812 -21.453125l0 0.828125q0 4.5625 1.171875 8.5q1.171875 3.921875 3.390625 6.8125q2.234375 2.84375 5.375 4.46875q3.140625 1.625 7.046875 1.625q2.078125 0 3.875 -0.453125q1.796875 -0.453125 3.28125 -1.234375q0.96875 -0.546875 1.84375 -1.265625q0.890625 -0.71875 1.671875 -1.625l0 2.703125q0 2.265625 -0.65625 4.0625q-0.640625 1.796875 -1.84375 3.015625q-1.296875 1.328125 -3.1875 2.0q-1.890625 0.6875 -4.3125 0.6875q-1.484375 0 -2.890625 -0.296875q-1.40625 -0.28125 -2.734375 -0.875q-1.328125 -0.625 -2.578125 -1.578125q-1.25 -0.953125 -2.390625 -2.25l-4.640625 6.140625q1.40625 1.828125 3.328125 3.109375q1.9375 1.296875 4.09375 2.125q2.140625 0.8125 4.3125 1.203125q2.171875 0.390625 4.046875 0.390625q4.328125 0 7.9375 -1.1875q3.625 -1.1875 6.203125 -3.5q2.578125 -2.265625 4.0 -5.609375q1.421875 -3.328125 1.421875 -7.59375l0 -41.015625l-9.171875 0l-0.4375 4.140625q-0.734375 -0.984375 -1.65625 -1.765625q-0.921875 -0.78125 -1.96875 -1.359375q-1.53125 -0.90625 -3.390625 -1.34375q-1.84375 -0.453125 -4.078125 -0.453125q-3.984375 0 -7.125 1.5625q-3.140625 1.5625 -5.375 4.40625q-2.21875 2.859375 -3.390625 6.84375q-1.171875 3.984375 -1.171875 8.78125zm10.109375 0.828125l0 -0.828125q0 -2.765625 0.5625 -5.1875q0.578125 -2.421875 1.75 -4.265625q1.171875 -1.796875 2.9375 -2.828125q1.78125 -1.03125 4.25 -1.03125q1.359375 0 2.53125 0.28125q1.171875 0.265625 2.109375 0.765625q1.09375 0.546875 1.9375 1.4375q0.84375 0.875 1.46875 2.046875l0 18.203125q-0.59375 1.046875 -1.375 1.890625q-0.78125 0.84375 -1.796875 1.46875q-1.015625 0.578125 -2.234375 0.875q-1.203125 0.296875 -2.71875 0.296875q-2.46875 0 -4.25 -1.015625q-1.765625 -1.015625 -2.90625 -2.8125q-1.171875 -1.796875 -1.71875 -4.171875q-0.546875 -2.390625 -0.546875 -5.125z" fill-rule="nonzero"/></g></svg>